<?xml version="1.0" encoding="UTF-8"?>
<svg version="1.1" xmlns="http://www.w3.org/2000/svg" width="772" height="1080">
<path d="M0 0 C0.71229767 -0.00261841 1.42459534 -0.00523682 2.15847778 -0.00793457 C16.52842057 -0.01356298 30.3819018 1.59234346 44.5 4.3125 C45.3038916 4.46203125 46.1077832 4.6115625 46.93603516 4.765625 C61.05600092 7.46287249 77.40079178 11.44685795 89.5 19.3125 C90.634375 19.704375 91.76875 20.09625 92.9375 20.5 C98.91553133 22.63663477 104.28911425 26.07094756 109.73876953 29.28076172 C112.64485777 30.98316384 115.57324692 32.6459285 118.5 34.3125 C118.5 34.9725 118.5 35.6325 118.5 36.3125 C119.49 36.3125 120.48 36.3125 121.5 36.3125 C121.5 36.9725 121.5 37.6325 121.5 38.3125 C122.49 38.3125 123.48 38.3125 124.5 38.3125 C124.5 38.9725 124.5 39.6325 124.5 40.3125 C125.49 40.3125 126.48 40.3125 127.5 40.3125 C127.5 40.9725 127.5 41.6325 127.5 42.3125 C128.5828125 42.68375 128.5828125 42.68375 129.6875 43.0625 C132.77606582 44.43519592 135.01011418 46.03603296 137.5 48.3125 C137.5 48.9725 137.5 49.6325 137.5 50.3125 C138.05816406 50.55355469 138.61632812 50.79460937 139.19140625 51.04296875 C147.67438406 55.70788886 154.82651117 64.25516483 161.0078125 71.60546875 C162.39969493 73.1977531 163.84843017 74.66311534 165.375 76.125 C167.5 78.3125 167.5 78.3125 167.5 80.3125 C168.16 80.3125 168.82 80.3125 169.5 80.3125 C171.0078125 81.9921875 171.0078125 81.9921875 172.625 84.1875 C173.16382813 84.90679687 173.70265625 85.62609375 174.2578125 86.3671875 C175.5 88.3125 175.5 88.3125 175.5 90.3125 C176.16 90.3125 176.82 90.3125 177.5 90.3125 C178.66992188 91.86279297 178.66992188 91.86279297 179.96875 94.0546875 C180.69457275 95.26946777 180.69457275 95.26946777 181.43505859 96.50878906 C181.95148926 97.39276367 182.46791992 98.27673828 183 99.1875 C183.79978271 100.54439941 183.79978271 100.54439941 184.61572266 101.92871094 C186.25286274 104.71812892 187.87680432 107.51495062 189.5 110.3125 C189.97663086 111.12299805 190.45326172 111.93349609 190.94433594 112.76855469 C196.57360686 122.3581167 201.19589713 131.79010529 204.78076172 142.32739258 C205.59767931 144.58209623 206.5343373 146.7719579 207.46875 148.98046875 C209.84985615 154.88332398 211.24842576 160.92313247 212.625 167.125 C212.87636719 168.21103516 213.12773438 169.29707031 213.38671875 170.41601562 C217.16065646 187.06283512 218.69905982 203.38676564 218.6875 220.4375 C218.68709213 221.45796921 218.68709213 221.45796921 218.68667603 222.49905396 C218.66699673 233.23591789 218.19143748 243.70644232 216.5 254.3125 C216.20802734 256.22482422 216.20802734 256.22482422 215.91015625 258.17578125 C210.67187046 289.01657631 198.85076514 316.83522548 182.5 343.3125 C181.49738583 344.97759537 180.49630001 346.64361892 179.5 348.3125 C180.5209375 348.6528125 180.5209375 348.6528125 181.5625 349 C184.69163795 350.39812547 187.13923377 352.12340901 189.8515625 354.19140625 C191.62060315 355.50382292 191.62060315 355.50382292 194.5 356.3125 C194.5 356.9725 194.5 357.6325 194.5 358.3125 C195.21929688 358.56902344 195.93859375 358.82554687 196.6796875 359.08984375 C199.66413148 360.38365395 202.00443437 361.95565606 204.625 363.875 C207.33500053 365.85601862 209.3038487 367.24711623 212.5 368.3125 C212.5 368.9725 212.5 369.6325 212.5 370.3125 C213.19996094 370.57546875 213.89992188 370.8384375 214.62109375 371.109375 C221.24871534 373.87912731 227.75499551 376.94509087 231.16796875 383.53125 C234.96324775 395.91728689 234.57862738 407.37381903 229.5 419.3125 C227.76152622 422.26552395 225.80812329 424.78685724 223.5 427.3125 C222.736875 428.17875 221.97375 429.045 221.1875 429.9375 C210.18348859 439.6619752 198.87781041 442.2502458 184.5 443.3125 C183.36917244 443.4182132 183.36917244 443.4182132 182.21549988 443.52606201 C175.23698765 443.89779045 171.33052462 442.1271841 165.703125 438.16015625 C164.9070282 437.62660019 164.1109314 437.09304413 163.29071045 436.5433197 C160.7619812 434.84175457 158.25609938 433.10967555 155.75 431.375 C154.08478997 430.24459603 152.4181322 429.11632166 150.75 427.99023438 C147.50861672 425.79969025 144.2745691 423.5989157 141.04492188 421.39111328 C135.81917094 417.83278763 130.51204152 414.41152229 125.17871094 411.01733398 C123.27199352 409.80382617 121.38053905 408.5661927 119.5 407.3125 C116.35778033 407.62756627 116.35778033 407.62756627 113.5 408.3125 C113.5 408.9725 113.5 409.6325 113.5 410.3125 C112.18 410.3125 110.86 410.3125 109.5 410.3125 C109.5 410.9725 109.5 411.6325 109.5 412.3125 C53.42457417 439.87582921 -12.68991787 451.93339068 -73.5 432.3125 C-92.83989719 425.5514694 -110.8750585 416.66715313 -128.5 406.3125 C-128.5 405.6525 -128.5 404.9925 -128.5 404.3125 C-129.22574219 404.044375 -129.95148438 403.77625 -130.69921875 403.5 C-133.46864024 402.32579619 -135.80919434 400.9730676 -138.3125 399.3125 C-139.10269531 398.796875 -139.89289063 398.28125 -140.70703125 397.75 C-141.59455078 397.0384375 -141.59455078 397.0384375 -142.5 396.3125 C-142.5 395.6525 -142.5 394.9925 -142.5 394.3125 C-143.3971875 393.879375 -143.3971875 393.879375 -144.3125 393.4375 C-146.5 392.3125 -146.5 392.3125 -149.5 390.3125 C-149.5 389.6525 -149.5 388.9925 -149.5 388.3125 C-150.06912109 388.06862549 -150.63824219 387.82475098 -151.22460938 387.57348633 C-153.91480595 386.08262095 -155.73743008 384.31742709 -157.90625 382.13671875 C-158.73253906 381.30849609 -159.55882812 380.48027344 -160.41015625 379.62695312 C-161.69212891 378.32661133 -161.69212891 378.32661133 -163 377 C-164.28197266 375.71706055 -164.28197266 375.71706055 -165.58984375 374.40820312 C-176.5 363.42145451 -176.5 363.42145451 -176.5 360.3125 C-177.16 360.3125 -177.82 360.3125 -178.5 360.3125 C-179.77758789 358.80639648 -179.77758789 358.80639648 -181.22265625 356.68359375 C-181.75656982 355.90387207 -182.2904834 355.12415039 -182.84057617 354.32080078 C-183.40881104 353.47243652 -183.9770459 352.62407227 -184.5625 351.75 C-185.14813721 350.88101074 -185.73377441 350.01202148 -186.3371582 349.11669922 C-207.85691182 316.96250968 -221.05270063 282.81330197 -225.5 244.3125 C-225.64574463 243.09300659 -225.64574463 243.09300659 -225.79443359 241.84887695 C-227.9682265 222.29449751 -226.49088236 202.68914498 -223.5 183.3125 C-223.38785156 182.57999023 -223.27570313 181.84748047 -223.16015625 181.09277344 C-217.78948347 147.55922086 -202.78357768 116.8734339 -183.5 89.3125 C-183.01869629 88.6004541 -182.53739258 87.8884082 -182.04150391 87.15478516 C-180.91125576 85.50511086 -179.7124995 83.90269846 -178.5 82.3125 C-177.84 82.3125 -177.18 82.3125 -176.5 82.3125 C-176.273125 81.76851563 -176.04625 81.22453125 -175.8125 80.6640625 C-174.11190076 77.61715552 -171.87190683 75.21508868 -169.5 72.6875 C-169.01305664 72.16333496 -168.52611328 71.63916992 -168.02441406 71.09912109 C-161.21509813 63.81161049 -154.33230559 56.51307526 -146.5 50.3125 C-145.84 50.3125 -145.18 50.3125 -144.5 50.3125 C-144.5 49.6525 -144.5 48.9925 -144.5 48.3125 C-142.83227539 47.01123047 -142.83227539 47.01123047 -140.53515625 45.5546875 C-139.71031738 45.02327148 -138.88547852 44.49185547 -138.03564453 43.94433594 C-137.19888184 43.40583008 -136.36211914 42.86732422 -135.5 42.3125 C-134.07815353 41.34159202 -132.66001437 40.36522697 -131.24609375 39.3828125 C-115.5280986 28.58595639 -99.31399223 21.03535955 -81.5 14.3125 C-80.40945313 13.9 -79.31890625 13.4875 -78.1953125 13.0625 C-65.40259046 8.5265764 -51.91046597 6.21398614 -38.51733398 4.26342773 C-34.38326661 3.72645956 -34.38326661 3.72645956 -30.5 2.3125 C-28.35752762 2.10709652 -26.21061398 1.94660745 -24.0625 1.8125 C-15.92621593 1.30341407 -8.26665227 0.02876218 0 0 Z M-42.9375 65.125 C-44.17657104 65.52549561 -44.17657104 65.52549561 -45.44067383 65.93408203 C-51.22311693 67.82647658 -56.9219879 69.87480834 -62.5 72.3125 C-62.5 72.9725 -62.5 73.6325 -62.5 74.3125 C-63.23734375 74.44011719 -63.9746875 74.56773437 -64.734375 74.69921875 C-75.28779533 77.03945461 -84.1940999 84.83277765 -92.75756836 91.06323242 C-94.31491341 92.17979885 -95.90557708 93.24955139 -97.5 94.3125 C-97.5 94.9725 -97.5 95.6325 -97.5 96.3125 C-98.056875 96.56 -98.61375 96.8075 -99.1875 97.0625 C-104.33228328 99.84346393 -107.90733072 103.75319144 -111.65234375 108.1484375 C-114.11563368 111.03355932 -116.66724688 113.83768227 -119.21484375 116.6484375 C-120.70374533 118.22589058 -120.70374533 118.22589058 -120.5 120.3125 C-121.16 120.3125 -121.82 120.3125 -122.5 120.3125 C-124.05273547 122.34704854 -124.05273547 122.34704854 -125.625 125 C-129.46573479 131.26103254 -129.46573479 131.26103254 -131.421875 134.19921875 C-141.19887615 149.15803051 -147.51128454 165.95619761 -151.5 183.3125 C-151.97759766 185.22095703 -151.97759766 185.22095703 -152.46484375 187.16796875 C-154.83829208 197.78284884 -154.81557333 208.55158836 -154.875 219.375 C-154.88294586 220.13319031 -154.89089172 220.89138062 -154.89907837 221.67254639 C-155.01399864 235.96708268 -153.17199613 249.67456179 -149.1875 263.4375 C-148.97440186 264.18136963 -148.76130371 264.92523926 -148.54174805 265.69165039 C-141.48529933 289.63454099 -128.669603 314.81325899 -110.5 332.3125 C-109.84 332.3125 -109.18 332.3125 -108.5 332.3125 C-108.5 332.9725 -108.5 333.6325 -108.5 334.3125 C-107.157446 335.74950222 -107.157446 335.74950222 -105.3125 337.25 C-104.59320313 337.8584375 -103.87390625 338.466875 -103.1328125 339.09375 C-101.82957031 340.19203125 -101.82957031 340.19203125 -100.5 341.3125 C-99.39194195 342.27977742 -98.28525274 343.24862437 -97.1796875 344.21875 C-96.01591548 345.22950122 -94.85185278 346.23991786 -93.6875 347.25 C-93.12458252 347.74685303 -92.56166504 348.24370605 -91.98168945 348.75561523 C-88.72250499 351.68866797 -88.72250499 351.68866797 -84.5 352.3125 C-84.5 352.9725 -84.5 353.6325 -84.5 354.3125 C-81.96697437 355.99916138 -79.44754626 357.54974174 -76.8125 359.0625 C-76.03447021 359.51206055 -75.25644043 359.96162109 -74.45483398 360.42480469 C-51.14288689 373.72949684 -25.40231229 381.21990245 1.5 381.3125 C2.37446777 381.31652832 3.24893555 381.32055664 4.14990234 381.32470703 C17.04966178 381.28602368 28.38446721 379.73448036 40.5 375.3125 C42.24023438 374.70341797 42.24023438 374.70341797 44.015625 374.08203125 C51.45329116 371.35899945 58.48978008 367.98812882 65.5 364.3125 C65.5 363.6525 65.5 362.9925 65.5 362.3125 C66.2115625 362.21710938 66.923125 362.12171875 67.65625 362.0234375 C89.96382298 356.44654426 112.89761827 326.46227718 124.1875 308 C140.56013131 280.18224301 149.28987393 247.66040335 147.5 215.3125 C147.46277832 214.61479492 147.42555664 213.91708984 147.38720703 213.19824219 C146.10672457 192.00696095 140.75197851 171.39719931 131.5 152.3125 C131.02457764 151.32032471 131.02457764 151.32032471 130.53955078 150.30810547 C126.81497059 142.64848409 122.45696717 135.4905827 117.6875 128.4375 C116.98500122 127.39203003 116.98500122 127.39203003 116.26831055 126.32543945 C113.63072918 122.39460167 113.63072918 122.39460167 109.5 120.3125 C108.81335225 118.65396538 108.14936024 116.98598544 107.5 115.3125 C105.80663385 113.16369912 105.80663385 113.16369912 103.76171875 111.17578125 C102.65473633 110.06299805 102.65473633 110.06299805 101.52539062 108.92773438 C100.75388672 108.16783203 99.98238281 107.40792969 99.1875 106.625 C98.42759766 105.85349609 97.66769531 105.08199219 96.88476562 104.28710938 C96.14291016 103.54912109 95.40105469 102.81113281 94.63671875 102.05078125 C93.96342529 101.38087158 93.29013184 100.71096191 92.59643555 100.02075195 C90.33118737 98.17494532 88.25178633 97.25334057 85.5 96.3125 C85.5 95.6525 85.5 94.9925 85.5 94.3125 C83.61414696 92.81902606 81.7428352 91.46278678 79.75 90.125 C79.15727295 89.7235376 78.5645459 89.3220752 77.95385742 88.90844727 C50.13719438 70.25901805 20.60682304 61.33873238 -12.75 61.1875 C-13.76852051 61.18266602 -14.78704102 61.17783203 -15.83642578 61.17285156 C-25.43754023 61.1947898 -33.80836054 62.10149004 -42.9375 65.125 Z " fill="#037238" transform="translate(366.5,284.6875)"/>
<path d="M0 0 C1.84089575 -0.01195168 3.68174725 -0.03300844 5.52246094 -0.06152344 C8.31401843 -0.10397067 11.10464606 -0.12027627 13.89648438 -0.13061523 C14.70775787 -0.14812332 15.51903137 -0.16563141 16.35488892 -0.18367004 C23.19811057 -0.15749172 28.3204413 1.91997782 33.48242188 6.42016602 C36.55201288 10.10367522 36.43813648 13.66803604 36.04492188 18.29516602 C35.04492188 20.79516602 35.04492188 20.79516602 34.04492188 22.29516602 C33.38492188 22.29516602 32.72492188 22.29516602 32.04492188 22.29516602 C32.04492188 22.95516602 32.04492188 23.61516602 32.04492188 24.29516602 C25.33102157 29.43167744 18.51177584 28.81167699 10.36132812 28.68579102 C8.93644509 28.67832046 7.5115517 28.67263138 6.08665466 28.66864014 C2.35624274 28.65344754 -1.37353535 28.61422259 -5.10369873 28.56982422 C-8.91800363 28.52873254 -12.73241204 28.51059964 -16.546875 28.49047852 C-24.01656341 28.44772054 -31.48573158 28.37954866 -38.95507812 28.29516602 C-39.45067565 29.5561325 -39.94052564 30.81935881 -40.42797852 32.08349609 C-40.70138565 32.78670486 -40.97479279 33.48991364 -41.25648499 34.21443176 C-44.49802612 43.86924411 -41.27681395 54.15146311 -37.95507812 63.29516602 C-37.36770344 65.06466297 -36.78385402 66.83533791 -36.20507812 68.60766602 C-35.58632813 70.43297852 -35.58632813 70.43297852 -34.95507812 72.29516602 C-35.28507813 70.31516602 -35.61507812 68.33516602 -35.95507812 66.29516602 C-22.26957815 65.68706533 -8.59299899 65.19410734 5.10742188 65.17016602 C6.68209229 65.16339844 6.68209229 65.16339844 8.28857422 65.15649414 C27.06771418 65.19267165 27.06771418 65.19267165 33.04492188 70.29516602 C36.43521289 74.09910498 36.55369554 76.86904491 36.40039062 81.81860352 C35.87825634 85.45633031 34.47889822 87.59074785 32.04492188 90.29516602 C27.12107142 93.34358128 21.42685525 93.04434366 15.79492188 93.42016602 C14.58030273 93.50508301 13.36568359 93.59 12.11425781 93.67749023 C-2.56696954 94.60274638 -17.25187514 94.48233958 -31.95507812 94.29516602 C-32.28507813 90.99516602 -32.61507812 87.69516602 -32.95507812 84.29516602 C-32.92027344 85.62547852 -32.88546875 86.95579102 -32.84960938 88.32641602 C-32.5277622 105.78743784 -34.84286243 120.27541803 -41.95507812 136.29516602 C-41.62507812 135.96516602 -41.29507813 135.63516602 -40.95507812 135.29516602 C-37.5134235 134.91381799 -34.03920689 134.86171813 -30.58007812 134.73266602 C-28.95102539 134.67115356 -28.95102539 134.67115356 -27.2890625 134.60839844 C-18.11990468 134.30067865 -8.9510224 134.15990255 0.22296143 134.118927 C1.75907262 134.11147721 3.29517199 134.10084629 4.83123779 134.08688354 C23.75323516 133.93057789 23.75323516 133.93057789 32.04492188 138.29516602 C32.04492188 138.95516602 32.04492188 139.61516602 32.04492188 140.29516602 C32.70492187 140.29516602 33.36492187 140.29516602 34.04492188 140.29516602 C36.45250923 144.50844389 37.65294124 147.43101112 37.04492188 152.29516602 C35.47283869 156.91894008 33.50803581 159.13949344 29.21310425 161.46792603 C24.95469078 163.09266477 20.55365855 162.87794638 16.04882812 162.86938477 C14.45106789 162.89063164 14.45106789 162.89063164 12.82102966 162.91230774 C9.41639273 162.95405911 6.01227764 162.96936863 2.60742188 162.98266602 C-1.82884835 163.02182195 -6.26499332 163.07107659 -10.70117188 163.11938477 C-11.80105942 163.1293045 -12.90094696 163.13922424 -14.03416443 163.14944458 C-23.58661587 163.2495987 -33.11566616 163.63574622 -42.65795898 164.06591797 C-49.11171756 164.354408 -55.55696 164.51209823 -62.01757812 164.54516602 C-63.62729492 164.57610352 -63.62729492 164.57610352 -65.26953125 164.60766602 C-71.24331335 164.63722091 -75.85135564 164.56048652 -80.95507812 161.29516602 C-85.55477342 155.16276135 -85.55622065 149.72511668 -85.56445312 142.22875977 C-85.5810347 141.02922165 -85.59761627 139.82968353 -85.61470032 138.59379578 C-85.65553286 135.32087762 -85.67873897 132.04842824 -85.69350052 128.7753067 C-85.70899917 126.04087459 -85.73913158 123.30668822 -85.76956654 120.5723877 C-85.87428907 111.14679896 -85.92264964 101.72124812 -85.95507812 92.29516602 C-85.95769905 91.55393242 -85.96031998 90.81269882 -85.96302032 90.0490036 C-86.03158763 70.13091131 -86.0242894 50.21326068 -85.95507812 30.29516602 C-87.27507812 30.29516602 -88.59507812 30.29516602 -89.95507812 30.29516602 C-89.88656143 31.23028015 -89.81804474 32.16539429 -89.74745178 33.12884521 C-89.01411581 43.84043517 -88.74547776 54.51410389 -88.63867188 65.24829102 C-88.61798961 67.04164991 -88.59699131 68.83500518 -88.57569885 70.62835693 C-88.53210599 74.36980949 -88.4911623 78.11127761 -88.45239258 81.8527832 C-88.40358212 86.55875716 -88.3498734 91.2646581 -88.29443932 95.97055817 C-88.0952582 112.92711161 -87.91768654 129.88431739 -87.86523438 146.84204102 C-87.85513588 148.57372528 -87.85513588 148.57372528 -87.84483337 150.34039307 C-87.8439119 151.37573181 -87.84299042 152.41107056 -87.84204102 153.4777832 C-87.83836266 154.81350372 -87.83836266 154.81350372 -87.83460999 156.1762085 C-87.95507812 158.29516602 -87.95507812 158.29516602 -88.95507812 160.29516602 C-89.61507812 160.29516602 -90.27507812 160.29516602 -90.95507812 160.29516602 C-90.95507812 160.95516602 -90.95507812 161.61516602 -90.95507812 162.29516602 C-91.61507812 162.29516602 -92.27507812 162.29516602 -92.95507812 162.29516602 C-92.95507812 162.95516602 -92.95507812 163.61516602 -92.95507812 164.29516602 C-98.95649956 168.00540439 -107.19222401 166.93735979 -113.88476562 165.79516602 C-119.31545084 164.34258152 -123.07097816 162.37845059 -126.95507812 158.29516602 C-128.03271469 155.22705486 -128.07860491 152.33963142 -128.07533264 149.10662842 C-128.07739464 147.53334778 -128.07739464 147.53334778 -128.07949829 145.92828369 C-128.07410538 144.21061798 -128.07410538 144.21061798 -128.06860352 142.45825195 C-128.06874954 141.2482251 -128.06889557 140.03819824 -128.06904602 138.79150391 C-128.06846894 135.4777724 -128.0634554 132.16410327 -128.05647206 128.8503828 C-128.05021863 125.38571036 -128.04963315 121.92103708 -128.04844666 118.45635986 C-128.04533921 111.89744792 -128.03713372 105.33855266 -128.02709717 98.77964807 C-128.01591782 91.31174324 -128.01042098 83.84383761 -128.00540173 76.37592649 C-127.99495063 61.01566334 -127.97736254 45.65541683 -127.95507812 30.29516602 C-128.56371704 30.3099147 -129.17235596 30.32466339 -129.79943848 30.33985901 C-136.15878533 30.49279491 -142.51828326 30.63743153 -148.87792969 30.77734375 C-151.24842073 30.8305714 -153.61886594 30.88588441 -155.98925781 30.94335938 C-159.4048474 31.02580959 -162.82053391 31.10065254 -166.23632812 31.17407227 C-167.28872681 31.20110733 -168.34112549 31.2281424 -169.42541504 31.2559967 C-186.2296811 31.59355371 -186.2296811 31.59355371 -192.95507812 25.29516602 C-195.29467508 22.42727298 -195.89719364 20.63604129 -196.51757812 16.98266602 C-195.75867233 12.00761692 -193.4919184 8.82389428 -189.95507812 5.29516602 C-182.82863032 1.11446519 -173.22180791 2.14119762 -165.20507812 2.10571289 C-164.17868225 2.09741959 -163.15228638 2.08912628 -162.0947876 2.08058167 C-159.87639852 2.06327152 -157.65799209 2.04808066 -155.4395752 2.0348053 C-151.88187413 2.01347716 -148.32425334 1.98646323 -144.76660156 1.95812988 C-137.16279365 1.89866923 -129.55894292 1.84673934 -121.95507812 1.79516602 C-112.03837508 1.72679373 -102.12170767 1.65475764 -92.20507812 1.57641602 C-90.38455996 1.56218125 -90.38455996 1.56218125 -88.52726364 1.54765892 C-68.50543032 1.38598126 -48.49711138 0.98839853 -28.48205376 0.46046352 C-18.98902244 0.2127835 -9.49627577 0.04273673 0 0 Z " fill="#058B47" transform="translate(431.955078125,432.704833984375)"/>
<path d="M0 0 C6.18403165 -0.10575328 12.36756806 -0.18569314 18.55233765 -0.23214722 C20.52268646 -0.24963008 22.49298775 -0.27389203 24.46316528 -0.3052063 C27.22700965 -0.3471028 29.98984528 -0.36271874 32.75396729 -0.37182617 C33.56371506 -0.38928894 34.37346283 -0.40675171 35.20774841 -0.42474365 C42.05302985 -0.39901442 47.17620204 1.67726551 52.33990479 6.17895508 C55.40949579 9.86246429 55.29561939 13.4268251 54.90240479 18.05395508 C53.90240479 20.55395508 53.90240479 20.55395508 52.90240479 22.05395508 C52.24240479 22.05395508 51.58240479 22.05395508 50.90240479 22.05395508 C50.90240479 22.71395508 50.90240479 23.37395508 50.90240479 24.05395508 C44.18850448 29.1904665 37.36925875 28.57046605 29.21881104 28.44458008 C27.793928 28.43710952 26.36903461 28.43142044 24.94413757 28.4274292 C21.21372565 28.4122366 17.48394756 28.37301166 13.75378418 28.32861328 C9.93947928 28.2875216 6.12507087 28.2693887 2.31060791 28.24926758 C-5.1590805 28.20650961 -12.62824867 28.13833772 -20.09759521 28.05395508 C-20.59319274 29.31492156 -21.08304273 30.57814788 -21.57049561 31.84228516 C-21.84390274 32.54549393 -22.11730988 33.2487027 -22.39900208 33.97322083 C-25.64054321 43.62803317 -22.41933104 53.91025217 -19.09759521 63.05395508 C-18.51022053 64.82345203 -17.92637111 66.59412697 -17.34759521 68.36645508 C-16.93509521 69.58333008 -16.52259521 70.80020508 -16.09759521 72.05395508 C-16.42759521 70.07395508 -16.75759521 68.09395508 -17.09759521 66.05395508 C-3.41209524 65.44585439 10.26448392 64.9528964 23.96490479 64.92895508 C25.01468506 64.92444336 26.06446533 64.91993164 27.14605713 64.9152832 C45.92519709 64.95146071 45.92519709 64.95146071 51.90240479 70.05395508 C55.2926958 73.85789404 55.41117845 76.62783397 55.25787354 81.57739258 C54.73573925 85.21511937 53.33638113 87.34953691 50.90240479 90.05395508 C45.97855433 93.10237034 40.28433816 92.80313272 34.65240479 93.17895508 C33.43778564 93.26387207 32.2231665 93.34878906 30.97174072 93.4362793 C16.29051337 94.36153545 1.60560777 94.24112864 -13.09759521 94.05395508 C-13.42759521 90.75395508 -13.75759521 87.45395508 -14.09759521 84.05395508 C-14.04538818 86.04942383 -14.04538818 86.04942383 -13.99212646 88.08520508 C-13.6151618 108.43182562 -15.62483171 128.64569722 -30.03509521 144.17895508 C-38.5029983 152.86011616 -45.61817453 156.75576091 -57.09759521 162.05395508 C-57.09759521 109.25395508 -57.09759521 56.45395508 -57.09759521 2.05395508 C-43.25030694 0.90001439 -43.25030694 0.90001439 -36.32025146 0.73754883 C-35.52649612 0.71654114 -34.73274078 0.69553345 -33.91493225 0.67388916 C-31.33008078 0.60784203 -28.74516093 0.54847815 -26.16009521 0.49145508 C-25.26550598 0.47160553 -24.37091675 0.45175598 -23.44921875 0.43130493 C-15.63319595 0.26273215 -7.81662502 0.13615291 0 0 Z " fill="#532B25" transform="translate(413.09759521484375,432.946044921875)"/>
<path d="M0 0 C0 1.98 0 3.96 0 6 C-0.54785156 6.18433594 -1.09570312 6.36867188 -1.66015625 6.55859375 C-7.37591289 8.64972423 -12.54259613 11.32232788 -17.75 14.4375 C-18.37527588 14.80866943 -19.00055176 15.17983887 -19.64477539 15.56225586 C-22.73530742 17.44610637 -25.53958493 19.39945102 -28.265625 21.78515625 C-31 24 -31 24 -34 24 C-34 24.66 -34 25.32 -34 26 C-35.57716239 27.25033597 -37.21501322 28.42442042 -38.875 29.5625 C-46.745414 35.15676599 -53.81218612 41.31138535 -60.0234375 48.71484375 C-61.59410088 50.53072927 -63.19259817 52.27090996 -64.8515625 54.00390625 C-70.43467645 59.85409199 -75.31965415 65.52671364 -79.484375 72.51171875 C-80.9084303 74.84966521 -82.44146672 76.96956724 -84.125 79.125 C-87.68608026 83.74581192 -90.39657286 88.79314571 -93 94 C-93.66 94 -94.32 94 -95 94 C-95.0825 94.66 -95.165 95.32 -95.25 96 C-96.25036338 100.00145353 -98.1190347 103.34573408 -100 107 C-125.03012555 156.28076623 -126.33257219 218.09075147 -109.41796875 270 C-108.04286624 274.0395531 -106.53859312 278.02011318 -105 282 C-104.69835937 282.85464844 -104.39671875 283.70929688 -104.0859375 284.58984375 C-99.91323791 295.99652253 -93.67640796 307.21792044 -86.91577148 317.28662109 C-86 319 -86 319 -86 322 C-85.34 322 -84.68 322 -84 322 C-83.67 323.32 -83.34 324.64 -83 326 C-82.34 326 -81.68 326 -81 326 C-79.91408387 327.58224899 -78.9075854 329.21920412 -77.9375 330.875 C-74.2188676 336.89748367 -69.82318272 341.85185107 -65 347 C-63.74379151 348.43207768 -62.49329488 349.86919681 -61.25 351.3125 C-59.26652523 353.60112473 -57.24610506 355.77702651 -55.0625 357.875 C-53 360 -53 360 -53 362 C-52.4225 362.28875 -51.845 362.5775 -51.25 362.875 C-50.5075 363.24625 -49.765 363.6175 -49 364 C-48.34 364.268125 -47.68 364.53625 -47 364.8125 C-45 366 -45 366 -43.1875 368.3125 C-41.24174664 370.70299699 -39.74766942 371.98888378 -37.25 373.6875 C-36.1775 374.450625 -35.105 375.21375 -34 376 C-34 376.66 -34 377.32 -34 378 C-32.68 378.33 -31.36 378.66 -30 379 C-30 379.66 -30 380.32 -30 381 C-29.31421875 381.24621094 -28.6284375 381.49242187 -27.921875 381.74609375 C-24.4930685 383.21754681 -21.41064404 385.10085077 -18.25 387.0625 C6.36163691 401.96227332 31.58262095 411.8784034 60 417 C61.14637939 417.20810303 61.14637939 417.20810303 62.31591797 417.42041016 C75.37380542 419.67285636 88.78688717 419.62792745 102 420 C102 420.66 102 421.32 102 422 C52.34231385 429.37431507 4.21720003 412.80260502 -38 388 C-38 387.34 -38 386.68 -38 386 C-38.72574219 385.731875 -39.45148438 385.46375 -40.19921875 385.1875 C-42.96864024 384.01329619 -45.30919434 382.6605676 -47.8125 381 C-48.60269531 380.484375 -49.39289063 379.96875 -50.20703125 379.4375 C-51.09455078 378.7259375 -51.09455078 378.7259375 -52 378 C-52 377.34 -52 376.68 -52 376 C-52.8971875 375.566875 -52.8971875 375.566875 -53.8125 375.125 C-56 374 -56 374 -59 372 C-59 371.34 -59 370.68 -59 370 C-59.56912109 369.75612549 -60.13824219 369.51225098 -60.72460938 369.26098633 C-63.41480595 367.77012095 -65.23743008 366.00492709 -67.40625 363.82421875 C-68.23253906 362.99599609 -69.05882812 362.16777344 -69.91015625 361.31445312 C-71.19212891 360.01411133 -71.19212891 360.01411133 -72.5 358.6875 C-73.78197266 357.40456055 -73.78197266 357.40456055 -75.08984375 356.09570312 C-86 345.10895451 -86 345.10895451 -86 342 C-86.66 342 -87.32 342 -88 342 C-89.27758789 340.49389648 -89.27758789 340.49389648 -90.72265625 338.37109375 C-91.25656982 337.59137207 -91.7904834 336.81165039 -92.34057617 336.00830078 C-92.90881104 335.15993652 -93.4770459 334.31157227 -94.0625 333.4375 C-94.64813721 332.56851074 -95.23377441 331.69952148 -95.8371582 330.80419922 C-117.35691182 298.65000968 -130.55270063 264.50080197 -135 226 C-135.14574463 224.78050659 -135.14574463 224.78050659 -135.29443359 223.53637695 C-137.4682265 203.98199751 -135.99088236 184.37664498 -133 165 C-132.88785156 164.26749023 -132.77570313 163.53498047 -132.66015625 162.78027344 C-127.28948347 129.24672086 -112.28357768 98.5609339 -93 71 C-92.51869629 70.2879541 -92.03739258 69.5759082 -91.54150391 68.84228516 C-90.41125576 67.19261086 -89.2124995 65.59019846 -88 64 C-87.34 64 -86.68 64 -86 64 C-85.773125 63.45601563 -85.54625 62.91203125 -85.3125 62.3515625 C-83.61190076 59.30465552 -81.37190683 56.90258868 -79 54.375 C-78.51305664 53.85083496 -78.02611328 53.32666992 -77.52441406 52.78662109 C-70.71509813 45.49911049 -63.83230559 38.20057526 -56 32 C-55.34 32 -54.68 32 -54 32 C-54 31.34 -54 30.68 -54 30 C-52.33227539 28.69873047 -52.33227539 28.69873047 -50.03515625 27.2421875 C-49.21031738 26.71077148 -48.38547852 26.17935547 -47.53564453 25.63183594 C-46.69888184 25.09333008 -45.86211914 24.55482422 -45 24 C-43.57815353 23.02909202 -42.16001437 22.05272697 -40.74609375 21.0703125 C-31.17093932 14.49694974 -21.54238728 8.86751732 -11 4 C-10.03449219 3.54625 -9.06898438 3.0925 -8.07421875 2.625 C-2.359375 0 -2.359375 0 0 0 Z " fill="#07592C" transform="translate(276,303)"/>
<path d="M0 0 C19.44506875 2.08340022 41.50481147 18.32565644 55.73046875 30.9296875 C58.26162874 33.16453398 60.85332118 35.2797126 63.5 37.375 C65.3125 39 65.3125 39 66.5 40.375 C66.5 41.035 66.5 41.695 66.5 42.375 C67.16 42.375 67.82 42.375 68.5 42.375 C93.90621675 69.20484097 111.09391682 107.63468105 111.80859375 144.703125 C111.82390137 145.48184464 111.83920898 146.26056427 111.85498047 147.06288147 C112.275018 173.36985192 109.32025348 197.08837778 98.5 221.375 C98.06042969 222.39464844 97.62085938 223.41429687 97.16796875 224.46484375 C96.30400931 226.44615002 95.40808914 228.41352745 94.5 230.375 C93.84 230.375 93.18 230.375 92.5 230.375 C92.39429688 231.1071875 92.28859375 231.839375 92.1796875 232.59375 C91.4467446 235.59291867 90.39938046 237.36791517 88.625 239.875 C86.94425457 242.28807022 85.34747983 244.63897722 83.875 247.1875 C82.35298525 249.6088871 80.51555265 251.35944735 78.5 253.375 C78.17 254.365 77.84 255.355 77.5 256.375 C76.84 256.375 76.18 256.375 75.5 256.375 C75.22800781 256.96410156 74.95601563 257.55320312 74.67578125 258.16015625 C69.45335966 267.9977411 58.58871548 277.18775606 49.5 283.375 C48.84 283.375 48.18 283.375 47.5 283.375 C47.5 284.035 47.5 284.695 47.5 285.375 C46.84 285.375 46.18 285.375 45.5 285.375 C45.005 281.91 45.005 281.91 44.5 278.375 C45.49 278.045 46.48 277.715 47.5 277.375 C47.891875 276.364375 48.28375 275.35375 48.6875 274.3125 C49.94534038 271.11655863 51.42781093 269.2708886 53.9375 266.9375 C82.03114942 240.08100211 94.98474439 198.8609755 96.75 160.9609375 C96.81227157 157.07674846 96.71460699 153.25353353 96.5 149.375 C96.46277832 148.67729492 96.42555664 147.97958984 96.38720703 147.26074219 C95.10672457 126.06946095 89.75197851 105.45969931 80.5 86.375 C80.18305176 85.7135498 79.86610352 85.05209961 79.53955078 84.37060547 C74.09946664 73.18304 67.47102338 61.10093008 58.5 52.375 C57.49280647 51.21453789 56.49343925 50.04725832 55.5 48.875 C52.40453367 45.32509287 49.18244747 41.91452223 45.875 38.5625 C44.97523438 37.64855469 44.07546875 36.73460937 43.1484375 35.79296875 C40.60578649 33.31068962 40.60578649 33.31068962 37.6640625 31.67578125 C36.94992187 31.24652344 36.23578125 30.81726563 35.5 30.375 C35.5 29.715 35.5 29.055 35.5 28.375 C34.94570313 28.11203125 34.39140625 27.8490625 33.8203125 27.578125 C31.22954178 26.2347624 28.8249881 24.71070658 26.375 23.125 C25.39402344 22.49980469 24.41304688 21.87460937 23.40234375 21.23046875 C21.65992314 20.11653902 19.92153501 18.99620821 18.19140625 17.86328125 C10.09707988 12.74295347 1.27873711 9.14278042 -7.5 5.375 C-7.5 4.715 -7.5 4.055 -7.5 3.375 C-8.49 3.045 -9.48 2.715 -10.5 2.375 C-9.55125 2.41625 -8.6025 2.4575 -7.625 2.5 C-3.8422676 2.3486907 -3.54303508 0.53145526 0 0 Z " fill="#07592B" transform="translate(416.5,350.625)"/>
<path d="M0 0 C1.859375 0.6015625 1.859375 0.6015625 4 2 C9.32833099 13.93940832 9.40452717 25.80058405 5.26953125 38.015625 C3.45421051 42.28302513 1.11419371 45.59232206 -2 49 C-3.1446875 50.299375 -3.1446875 50.299375 -4.3125 51.625 C-15.0943455 61.15314254 -24.81191003 63.41471606 -39 64 C-38.67 62.68 -38.34 61.36 -38 60 C-39.32 60 -40.64 60 -42 60 C-42 59.34 -42 58.68 -42 58 C-42.66 58 -43.32 58 -44 58 C-44 57.34 -44 56.68 -44 56 C-45.32 56 -46.64 56 -48 56 C-48 55.34 -48 54.68 -48 54 C-48.99 54 -49.98 54 -51 54 C-51 53.34 -51 52.68 -51 52 C-51.99 52 -52.98 52 -54 52 C-54 51.34 -54 50.68 -54 50 C-55.32 50 -56.64 50 -58 50 C-58 49.34 -58 48.68 -58 48 C-58.99 48 -59.98 48 -61 48 C-61 47.34 -61 46.68 -61 46 C-61.99 46 -62.98 46 -64 46 C-64.33 44.68 -64.66 43.36 -65 42 C-65.99 42 -66.98 42 -68 42 C-68 41.34 -68 40.68 -68 40 C-69.32 40 -70.64 40 -72 40 C-72 39.34 -72 38.68 -72 38 C-72.66 38 -73.32 38 -74 38 C-74 37.34 -74 36.68 -74 36 C-75.32 36 -76.64 36 -78 36 C-78 35.34 -78 34.68 -78 34 C-78.66 34 -79.32 34 -80 34 C-80 33.34 -80 32.68 -80 32 C-81.32 32 -82.64 32 -84 32 C-84 31.34 -84 30.68 -84 30 C-84.66 30 -85.32 30 -86 30 C-86 29.34 -86 28.68 -86 28 C-87.32 28 -88.64 28 -90 28 C-90 27.34 -90 26.68 -90 26 C-90.66 26 -91.32 26 -92 26 C-92 25.34 -92 24.68 -92 24 C-92.99 24 -93.98 24 -95 24 C-95.33 22.68 -95.66 21.36 -96 20 C-94.02 20 -92.04 20 -90 20 C-90 19.34 -90 18.68 -90 18 C-85.05 17.67 -80.1 17.34 -75 17 C-75 16.67 -75 16.34 -75 16 C-71.37 16 -67.74 16 -64 16 C-64 15.34 -64 14.68 -64 14 C-60.37 14 -56.74 14 -53 14 C-53 13.34 -53 12.68 -53 12 C-51.02 12 -49.04 12 -47 12 C-47 11.34 -47 10.68 -47 10 C-42.05 10 -37.1 10 -32 10 C-32 9.34 -32 8.68 -32 8 C-28.37 7.67 -24.74 7.34 -21 7 C-21 6.67 -21 6.34 -21 6 C-17.7 6 -14.4 6 -11 6 C-11 5.34 -11 4.68 -11 4 C-8.36 4 -5.72 4 -3 4 C-3 3.34 -3 2.68 -3 2 C-2.01 2 -1.02 2 0 2 C0 1.34 0 0.68 0 0 Z " fill="#532B25" transform="translate(592,663)"/>
<path d="M0 0 C4.6625542 -0.06821843 9.32483809 -0.1154972 13.98782349 -0.14102173 C15.52521556 -0.14979991 17.0625948 -0.16129004 18.59994507 -0.17562866 C37.52105509 -0.33141836 37.52105509 -0.33141836 45.81280518 4.03320312 C45.81280518 4.69320312 45.81280518 5.35320313 45.81280518 6.03320312 C46.47280518 6.03320312 47.13280518 6.03320312 47.81280518 6.03320312 C50.22039253 10.246481 51.42082454 13.16904823 50.81280518 18.03320312 C49.24072199 22.65697719 47.27591911 24.87753055 42.98098755 27.20596313 C38.72257409 28.83070188 34.32154185 28.61598349 29.81671143 28.60742188 C28.75153793 28.62158646 27.68636444 28.63575104 26.58891296 28.65034485 C23.18427603 28.69209621 19.78016094 28.70740574 16.37530518 28.72070312 C11.93903491 28.75985906 7.50289023 28.80913497 3.06671143 28.85742188 C1.4166082 28.87223351 1.4166082 28.87223351 -0.26683044 28.88734436 C-8.84514654 28.97699809 -17.40215621 29.28962332 -25.9715271 29.67773438 C-33.48465137 30.01601031 -40.97783133 30.21597537 -48.49969482 30.22070312 C-49.60635498 30.23294922 -50.71301514 30.24519531 -51.85321045 30.2578125 C-53.43585693 30.26071289 -53.43585693 30.26071289 -55.05047607 30.26367188 C-55.97126953 30.26778076 -56.89206299 30.27188965 -57.84075928 30.27612305 C-60.18719482 30.03320312 -60.18719482 30.03320312 -63.18719482 28.03320312 C-62.07602295 27.48792969 -60.96485107 26.94265625 -59.82000732 26.38085938 C-48.24894416 20.56800072 -39.38520089 14.1601518 -31.18719482 4.03320312 C-28.28488708 1.46375176 -26.42036983 0.6473166 -22.55828857 0.52148438 C-21.6224292 0.48579346 -20.68656982 0.45010254 -19.72235107 0.41333008 C-18.70012451 0.39101318 -17.67789795 0.36869629 -16.62469482 0.34570312 C-15.55219482 0.31371826 -14.47969482 0.2817334 -13.37469482 0.2487793 C-8.91680567 0.13250561 -4.45878035 0.06768736 0 0 Z " fill="#088C49" transform="translate(418.18719482421875,566.966796875)"/>
<path d="M0 0 C1.57467041 -0.00676758 1.57467041 -0.00676758 3.18115234 -0.01367188 C21.96029231 0.02250563 21.96029231 0.02250563 27.9375 5.125 C31.32779102 8.92893896 31.44627366 11.69887889 31.29296875 16.6484375 C30.77083446 20.28616429 29.37147635 22.42058184 26.9375 25.125 C22.01364954 28.17341527 16.31943338 27.87417764 10.6875 28.25 C9.47288086 28.33491699 8.25826172 28.41983398 7.00683594 28.50732422 C-7.67653205 29.43271528 -22.3573196 29.29687873 -37.0625 29.125 C-37.3925 23.845 -37.7225 18.565 -38.0625 13.125 C-38.7225 13.125 -39.3825 13.125 -40.0625 13.125 C-40.3925 9.165 -40.7225 5.205 -41.0625 1.125 C-27.3760819 0.52528215 -13.701088 0.02394249 0 0 Z " fill="#088D49" transform="translate(437.0625,497.875)"/>
<path d="M0 0 C1.96522241 -0.01684054 3.93039804 -0.04069354 5.89544678 -0.07177734 C8.66038684 -0.11371455 11.42432677 -0.12942323 14.18954468 -0.13867188 C14.99935287 -0.15613968 15.80916107 -0.17360748 16.64350891 -0.19160461 C23.48871143 -0.16582866 28.61184101 1.91047348 33.77548218 6.41210938 C36.84507319 10.09561858 36.73119678 13.6599794 36.33798218 18.28710938 C35.33798218 20.78710938 35.33798218 20.78710938 34.33798218 22.28710938 C33.67798218 22.28710938 33.01798218 22.28710938 32.33798218 22.28710938 C32.33798218 22.94710938 32.33798218 23.60710937 32.33798218 24.28710938 C25.65917635 29.36986088 18.97393648 28.80489407 10.87313843 28.67773438 C9.47067577 28.67026356 8.06820259 28.6645746 6.66572571 28.6605835 C2.99449269 28.64539287 -0.676096 28.60616976 -4.34707642 28.56176758 C-8.10105679 28.52067154 -11.85514242 28.50254209 -15.60928345 28.48242188 C-22.96048699 28.4396674 -30.31116174 28.37149805 -37.66201782 28.28710938 C-36.56600058 20.47631165 -33.34256483 17.90003082 -27.66201782 12.28710938 C-23.37201782 9.31710937 -19.08201782 6.34710938 -14.66201782 3.28710938 C-38.91701782 2.79210937 -38.91701782 2.79210937 -63.66201782 2.28710938 C-63.66201782 1.95710938 -63.66201782 1.62710937 -63.66201782 1.28710938 C-42.44674531 0.66715581 -21.2242901 0.15176684 0 0 Z " fill="#078C48" transform="translate(431.6620178222656,432.712890625)"/>
<path d="M0 0 C2.97 0 5.94 0 9 0 C9.01030746 1.36539413 9.02061493 2.73078827 9.03123474 4.13755798 C9.12941411 17.06779452 9.23218581 29.99798767 9.33933926 42.92815304 C9.39427012 49.57407628 9.44763881 56.22000157 9.49731445 62.8659668 C9.54540259 69.29157997 9.5977548 75.71714611 9.65294075 82.1427021 C9.67316501 84.58200455 9.69190802 87.02131979 9.70907402 89.46064568 C8.78901785 111.00537721 8.78901785 111.00537721 12 132 C8.8125 132.375 8.8125 132.375 5 132 C1.78342926 129.31282664 0.27714337 127.59273492 -0.44631386 123.43504715 C-0.61699142 120.19679315 -0.61802155 116.99488899 -0.56762695 113.75244141 C-0.56835709 112.52261536 -0.56908722 111.29278931 -0.56983948 110.0256958 C-0.56695959 106.66604605 -0.54194595 103.30794625 -0.50696969 99.94857073 C-0.47564122 96.43323903 -0.47277038 92.91788506 -0.46684265 89.4024353 C-0.4513231 82.75131847 -0.41032079 76.10061421 -0.3600952 69.44967878 C-0.30414245 61.87537699 -0.27670042 54.30105515 -0.25161803 46.72659802 C-0.19940279 31.15082669 -0.11149794 15.57546662 0 0 Z " fill="#02682F" transform="translate(304,463)"/>
<path d="M0 0 C6.15234375 -0.09765625 6.15234375 -0.09765625 8 0 C9.88213336 1.88213336 9.17444726 5.12516368 9.20532227 7.63208008 C9.22016741 8.67886429 9.22016741 8.67886429 9.23531246 9.74679565 C9.26718751 12.0876722 9.29186076 14.42856719 9.31640625 16.76953125 C9.33708722 18.42177268 9.35813094 20.07400961 9.3795166 21.72624207 C9.4355077 26.16900805 9.48479017 30.611825 9.53242874 35.0546875 C9.56236444 37.80006805 9.59419369 40.54541999 9.62667847 43.29077148 C9.97957036 73.19474952 10.13544443 103.09387096 10 133 C7.75 132.9375 7.75 132.9375 5 132 C0.22540043 126.09991518 0.39873058 120.32868345 0.390625 112.96875 C0.36575264 111.17354416 0.36575264 111.17354416 0.34037781 109.34207153 C0.29953526 106.07464132 0.27633462 102.80768078 0.26157761 99.54004669 C0.24607677 96.80870251 0.21593847 94.07760422 0.18551159 91.34639168 C0.08047533 81.89774797 0.03227834 72.44913946 0 63 C-0.00262093 62.25198624 -0.00524185 61.50397247 -0.0079422 60.73329163 C-0.07690667 40.4887197 -0.0689932 20.24457493 0 0 Z " fill="#096B35" transform="translate(346,462)"/>
<path d="M0 0 C0.66 1.32 1.32 2.64 2 4 C2.99 4 3.98 4 5 4 C5 4.66 5 5.32 5 6 C5.66 6 6.32 6 7 6 C7 6.66 7 7.32 7 8 C8.32 8 9.64 8 11 8 C11 8.66 11 9.32 11 10 C11.66 10 12.32 10 13 10 C13 10.66 13 11.32 13 12 C14.32 12 15.64 12 17 12 C17 12.66 17 13.32 17 14 C17.66 14 18.32 14 19 14 C19 14.66 19 15.32 19 16 C20.32 16 21.64 16 23 16 C23 16.66 23 17.32 23 18 C23.66 18 24.32 18 25 18 C25 18.66 25 19.32 25 20 C26.32 20 27.64 20 29 20 C29 20.66 29 21.32 29 22 C29.99 22 30.98 22 32 22 C32.495 23.98 32.495 23.98 33 26 C33.99 26 34.98 26 36 26 C36 26.66 36 27.32 36 28 C36.99 28 37.98 28 39 28 C39 28.66 39 29.32 39 30 C40.32 30 41.64 30 43 30 C43 30.66 43 31.32 43 32 C43.99 32 44.98 32 46 32 C46 32.66 46 33.32 46 34 C46.99 34 47.98 34 49 34 C49 34.66 49 35.32 49 36 C50.32 36 51.64 36 53 36 C53 36.66 53 37.32 53 38 C53.66 38 54.32 38 55 38 C55 38.66 55 39.32 55 40 C56.32 40 57.64 40 59 40 C59 40.66 59 41.32 59 42 C59.66 42.33 60.32 42.66 61 43 C56.19595515 45.56215726 51.30397547 45.69896361 46 45 C42.76191869 43.69285132 40.04942798 41.85415374 37.203125 39.84765625 C36.4070282 39.31410019 35.6109314 38.78054413 34.79071045 38.2308197 C32.2619812 36.52925457 29.75609938 34.79717555 27.25 33.0625 C25.58478997 31.93209603 23.9181322 30.80382166 22.25 29.67773438 C19.7993555 28.02270618 17.35193413 26.36402615 14.91516113 24.68862915 C11.24168168 22.1649952 7.5602032 19.69631311 3.74804688 17.38623047 C3.0979364 16.98875107 2.44782593 16.59127167 1.77801514 16.18174744 C0.05425859 15.1386993 -1.68188224 14.11619299 -3.41894531 13.09545898 C-6.46995769 10.61845944 -7.13358448 8.77763883 -8 5 C-4.04 2.525 -4.04 2.525 0 0 Z " fill="#08572A" transform="translate(495,683)"/>
<path d="M0 0 C0 1.98 0 3.96 0 6 C-0.54785156 6.18433594 -1.09570312 6.36867188 -1.66015625 6.55859375 C-7.37591289 8.64972423 -12.54259613 11.32232788 -17.75 14.4375 C-18.37527588 14.80866943 -19.00055176 15.17983887 -19.64477539 15.56225586 C-22.73530742 17.44610637 -25.53958493 19.39945102 -28.265625 21.78515625 C-31 24 -31 24 -34 24 C-34 24.66 -34 25.32 -34 26 C-35.57716239 27.25033597 -37.21501322 28.42442042 -38.875 29.5625 C-46.18960333 34.74407062 -52.70410388 40.63239663 -59 47 C-62 45 -62 45 -62.6875 42.875 C-62.790625 42.25625 -62.89375 41.6375 -63 41 C-63.33 41.99 -63.66 42.98 -64 44 C-66.475 44.495 -66.475 44.495 -69 45 C-65.12442226 40.20166566 -61.07516114 35.57092523 -56 32 C-55.34 32 -54.68 32 -54 32 C-54 31.34 -54 30.68 -54 30 C-52.33227539 28.69873047 -52.33227539 28.69873047 -50.03515625 27.2421875 C-49.21031738 26.71077148 -48.38547852 26.17935547 -47.53564453 25.63183594 C-46.28050049 24.82407715 -46.28050049 24.82407715 -45 24 C-43.57815353 23.02909202 -42.16001437 22.05272697 -40.74609375 21.0703125 C-31.17093932 14.49694974 -21.54238728 8.86751732 -11 4 C-9.55173828 3.319375 -9.55173828 3.319375 -8.07421875 2.625 C-2.359375 0 -2.359375 0 0 0 Z " fill="#0C5C2F" transform="translate(276,303)"/>
<path d="M0 0 C3.41796875 1.02539062 3.41796875 1.02539062 6.8359375 2.05078125 C7.88007813 2.36402344 8.92421875 2.67726563 10 3 C11.09368896 3.33898315 11.09368896 3.33898315 12.20947266 3.68481445 C35.99982694 10.98599215 59.22137849 13.30225036 84 14 C84 14.66 84 15.32 84 16 C57.95342838 19.86799387 21.00729374 19.00364687 -3 7 C-2.1654738 4.49642139 -1.20628008 2.33214148 0 0 Z " fill="#105E33" transform="translate(294,709)"/>
<path d="M0 0 C0.495 0.99 0.495 0.99 1 2 C-0.47169811 5.73584906 -0.47169811 5.73584906 -3 7 C-2.814375 7.598125 -2.62875 8.19625 -2.4375 8.8125 C-2 11 -2 11 -3 14 C-5.05744886 15.53416707 -7.07444558 16.90421604 -9.25 18.25 C-9.87318115 18.6411499 -10.4963623 19.0322998 -11.13842773 19.43530273 C-28.99525395 30.51784048 -28.99525395 30.51784048 -35 30 C-35 30.66 -35 31.32 -35 32 C-38.46537085 34.31024723 -41.82941667 35.1499932 -45.8125 36.125 C-46.51181641 36.30675781 -47.21113281 36.48851562 -47.93164062 36.67578125 C-52.04458953 37.69920913 -55.72734085 38.20122414 -60 38 C-57.51106696 35.51106696 -55.30799927 34.88508936 -52 33.6875 C-46.77361288 31.73848105 -41.84779845 29.53606301 -36.92578125 26.91796875 C-35 26 -35 26 -33 26 C-33 25.34 -33 24.68 -33 24 C-32.42894531 23.75507812 -31.85789062 23.51015625 -31.26953125 23.2578125 C-19.33261239 17.7543046 -9.52789659 8.90417424 0 0 Z " fill="#055829" transform="translate(465,623)"/>
<path d="M0 0 C0.886875 0.144375 1.77375 0.28875 2.6875 0.4375 C2.6875 1.0975 2.6875 1.7575 2.6875 2.4375 C3.3475 2.7675 4.0075 3.0975 4.6875 3.4375 C4.1925 4.0975 3.6975 4.7575 3.1875 5.4375 C1.1504979 9.51150419 1.24884517 11.90473344 1.6875 16.4375 C3.06256099 18.31640434 3.06256099 18.31640434 4.6875 19.4375 C4.6875 20.0975 4.6875 20.7575 4.6875 21.4375 C7.1625 22.4275 7.1625 22.4275 9.6875 23.4375 C9.6875 23.7675 9.6875 24.0975 9.6875 24.4375 C3.89536034 24.94558243 0.71823075 24.5674278 -3.8359375 20.85546875 C-7.03433225 17.78399443 -8.1630919 15.44600468 -8.8125 11.0625 C-8.03376077 5.41664061 -6.00738041 0.7934276 0 0 Z " fill="#02692F" transform="translate(244.3125,438.5625)"/>
<path d="M0 0 C0 1.98 0 3.96 0 6 C-0.54785156 6.18433594 -1.09570312 6.36867188 -1.66015625 6.55859375 C-10.07754044 9.63812455 -17.43102612 14.2769603 -25 19 C-25.33 18.01 -25.66 17.02 -26 16 C-27.65 16 -29.3 16 -31 16 C-27.61550079 12.10217057 -23.88236986 10.18674377 -19.3125 8 C-18.24491455 7.47889648 -18.24491455 7.47889648 -17.15576172 6.94726562 C-2.84739241 0 -2.84739241 0 0 0 Z " fill="#116135" transform="translate(276,303)"/>
<path d="M0 0 C0 0.33 0 0.66 0 1 C-0.86052979 0.98316162 -1.72105957 0.96632324 -2.60766602 0.94897461 C-25.96741627 0.28892738 -25.96741627 0.28892738 -46 11 C-46.81855469 11.6290625 -47.63710938 12.258125 -48.48046875 12.90625 C-52.8435961 16.4031098 -55.95201019 20.33276561 -59 25 C-59.66 24.67 -60.32 24.34 -61 24 C-54.7194783 14.73930918 -47.49539653 8.93462283 -38 3 C-62.255 2.505 -62.255 2.505 -87 2 C-87 1.67 -87 1.34 -87 1 C-57.99372601 0.15237748 -29.01805113 -0.13292271 0 0 Z " fill="#82B19A" transform="translate(455,433)"/>
<path d="M0 0 C0.66 0.33 1.32 0.66 2 1 C-5.40649684 11.09600687 -12.7609796 17.3804898 -24 23 C-9.15 23.33 5.7 23.66 21 24 C21 24.33 21 24.66 21 25 C8.23252107 25.65456396 -4.52741335 26.11558276 -17.3125 26.1875 C-18.43253418 26.20039062 -19.55256836 26.21328125 -20.70654297 26.2265625 C-22.26912842 26.22849609 -22.26912842 26.22849609 -23.86328125 26.23046875 C-24.78407471 26.23457764 -25.70486816 26.23868652 -26.65356445 26.24291992 C-29 26 -29 26 -32 24 C-30.88882812 23.45472656 -29.77765625 22.90945313 -28.6328125 22.34765625 C-17.18283051 16.59562414 -7.9043791 10.27569282 0 0 Z " fill="#92BCA9" transform="translate(387,571)"/>
<path d="M0 0 C-0.66 0.99 -1.32 1.98 -2 3 C-4.5625 3.1875 -4.5625 3.1875 -7 3 C-8.00157635 3 -9.00294588 3.03519108 -10.00390625 3.0703125 C-15.73338691 3.19277468 -20.5053303 2.62805028 -26 1 C-26 0.34 -26 -0.32 -26 -1 C-35.24 -1 -44.48 -1 -54 -1 C-54 -1.33 -54 -1.66 -54 -2 C-35.78255767 -4.28178066 -18.07588587 -2.82482672 0 0 Z " fill="#01582A" transform="translate(402,346)"/>
<path d="M0 0 C0.66 1.32 1.32 2.64 2 4 C2.99 4 3.98 4 5 4 C5 4.66 5 5.32 5 6 C5.66 6 6.32 6 7 6 C7 6.66 7 7.32 7 8 C8.32 8 9.64 8 11 8 C10.34 9.32 9.68 10.64 9 12 C8.34 12 7.68 12 7 12 C6.67 12.99 6.34 13.98 6 15 C3.08482708 13.92598892 1.22189824 13.22189824 -1 11 C-2.010625 10.71125 -3.02125 10.4225 -4.0625 10.125 C-5.031875 9.75375 -6.00125 9.3825 -7 9 C-7.33 7.68 -7.66 6.36 -8 5 C-4.04 2.525 -4.04 2.525 0 0 Z " fill="#055426" transform="translate(495,683)"/>
<path d="M0 0 C1.54880777 0.05332891 3.09763596 0.1060682 4.64648438 0.15820312 C8.4104262 0.28616959 12.17400151 0.42212084 15.9375 0.5625 C15.9375 1.2225 15.9375 1.8825 15.9375 2.5625 C8.92094843 3.64593811 2.02869097 3.7116197 -5.0625 3.6875 C-6.19945312 3.69136719 -7.33640625 3.69523438 -8.5078125 3.69921875 C-14.45508154 3.69231937 -20.18309162 3.47034982 -26.0625 2.5625 C-26.0625 1.9025 -26.0625 1.2425 -26.0625 0.5625 C-17.36335217 -0.77354659 -8.75633509 -0.32846784 0 0 Z " fill="#226844" transform="translate(362.0625,722.4375)"/>
<path d="M0 0 C0 2.62113708 -0.31292445 4.50935112 -1 7 C-2.32 7 -3.64 7 -5 7 C-5 7.66 -5 8.32 -5 9 C-8.46537085 11.31024723 -11.82941667 12.1499932 -15.8125 13.125 C-16.51181641 13.30675781 -17.21113281 13.48851562 -17.93164062 13.67578125 C-22.04458953 14.69920913 -25.72734085 15.20122414 -30 15 C-27.51106696 12.51106696 -25.30799927 11.88508936 -22 10.6875 C-16.77361288 8.73848105 -11.84779845 6.53606301 -6.92578125 3.91796875 C-5 3 -5 3 -3 3 C-3 2.34 -3 1.68 -3 1 C-2.01 0.67 -1.02 0.34 0 0 Z " fill="#216A42" transform="translate(435,646)"/>
<path d="M0 0 C0.969375 0.185625 1.93875 0.37125 2.9375 0.5625 C3.948125 0.706875 4.95875 0.85125 6 1 C6.33 0.67 6.66 0.34 7 0 C12.25018518 0.45260217 16.97805377 1.4306418 22 3 C19.71985486 5.82737998 18.28017296 6.91918088 14.75 7.9375 C10.82260193 8.00295663 8.60147626 7.34404956 5.06640625 5.8359375 C1.79560204 4.51277663 -1.56736528 3.79686163 -5 3 C-5 2.67 -5 2.34 -5 2 C-3.35 2 -1.7 2 0 2 C0 1.34 0 0.68 0 0 Z " fill="#146238" transform="translate(394,347)"/>
<path d="M0 0 C0.66 0 1.32 0 2 0 C2 5.28 2 10.56 2 16 C2.66 16 3.32 16 4 16 C4.45375 16.78375 4.9075 17.5675 5.375 18.375 C6.93209819 21.40363853 6.93209819 21.40363853 11 23 C7.37 24.65 3.74 26.3 0 28 C0 18.76 0 9.52 0 0 Z " fill="#4E3428" transform="translate(356,567)"/>
<path d="M0 0 C0.33 0 0.66 0 1 0 C1.70733987 23.6733108 2.16210253 47.31557367 2 71 C2.66 71.33 3.32 71.66 4 72 C4 74.97 4 77.94 4 81 C0.95638533 78.63835552 0.06696504 77.47392147 -0.48101807 73.59576416 C-0.49257035 72.22304175 -0.4820737 70.85002507 -0.45410156 69.47753906 C-0.45468567 68.72593002 -0.45526978 67.97432098 -0.45587158 67.19993591 C-0.45308998 64.72135865 -0.42199617 62.24399155 -0.390625 59.765625 C-0.38316284 58.04498959 -0.37746979 56.32434568 -0.37347412 54.60369873 C-0.35821575 50.07924861 -0.31893242 45.55531372 -0.2746582 41.03106689 C-0.23370975 36.41270924 -0.21546403 31.79426819 -0.1953125 27.17578125 C-0.15243818 18.11696137 -0.08418454 9.05852356 0 0 Z " fill="#72AA88" transform="translate(304,512)"/>
<path d="M0 0 C0.66 0.33 1.32 0.66 2 1 C-5.58924318 11.34511361 -14.40518369 20.16497274 -27 24 C-27.99 23.67 -28.98 23.34 -30 23 C-29.03320312 22.52691406 -28.06640625 22.05382812 -27.0703125 21.56640625 C-16.21987976 16.11186438 -7.47888501 9.72255051 0 0 Z " fill="#DBECDB" transform="translate(387,571)"/>
<path d="M0 0 C0 1.98 0 3.96 0 6 C-6.16645379 8.52653315 -10.43592388 9.31281522 -17 8 C-13.9703348 5.55185821 -10.92450401 3.90547147 -7.375 2.3125 C-6.41335938 1.87550781 -5.45171875 1.43851562 -4.4609375 0.98828125 C-2 0 -2 0 0 0 Z " fill="#136237" transform="translate(276,303)"/>
<path d="M0 0 C4.12498468 -0.02938023 8.24994191 -0.04692535 12.375 -0.0625 C13.53128906 -0.07087891 14.68757813 -0.07925781 15.87890625 -0.08789062 C31.04144271 -0.13072265 31.04144271 -0.13072265 36 1 C36.495 1.99 36.495 1.99 37 3 C34.03 3 31.06 3 28 3 C28 3.66 28 4.32 28 5 C27.01 5 26.02 5 25 5 C25 4.34 25 3.68 25 3 C21.37 3 17.74 3 14 3 C14 2.67 14 2.34 14 2 C7.07 1.505 7.07 1.505 0 1 C0 0.67 0 0.34 0 0 Z " fill="#5AA77F" transform="translate(423,498)"/>
<path d="M0 0 C1.890625 0.6484375 1.890625 0.6484375 4 2 C5.046875 4.6015625 5.046875 4.6015625 5.75 7.625 C5.99234375 8.62789062 6.2346875 9.63078125 6.484375 10.6640625 C6.65453125 11.43492187 6.8246875 12.20578125 7 13 C5.68 12.34 4.36 11.68 3 11 C3.33 9.35 3.66 7.7 4 6 C-0.95 6 -5.9 6 -11 6 C-11 5.34 -11 4.68 -11 4 C-8.36 4 -5.72 4 -3 4 C-3 3.34 -3 2.68 -3 2 C-2.01 2 -1.02 2 0 2 C0 1.34 0 0.68 0 0 Z " fill="#3F3C28" transform="translate(592,663)"/>
<path d="M0 0 C0.33 0.66 0.66 1.32 1 2 C-0.47169811 5.73584906 -0.47169811 5.73584906 -3 7 C-2.67 8.32 -2.34 9.64 -2 11 C-3.97746603 11.73080266 -5.98072489 12.39421747 -8 13 C-8.66 12.67 -9.32 12.34 -10 12 C-10 12.66 -10 13.32 -10 14 C-11.65 14 -13.3 14 -15 14 C-10.2347969 9.0759568 -5.11342667 4.55740358 0 0 Z " fill="#276946" transform="translate(465,623)"/>
<path d="M0 0 C0.75732422 0.09667969 1.51464844 0.19335938 2.29492188 0.29296875 C3.08060547 0.40511719 3.86628906 0.51726562 4.67578125 0.6328125 C5.47306641 0.73722656 6.27035156 0.84164063 7.09179688 0.94921875 C9.05869236 1.20833073 11.02369892 1.48170904 12.98828125 1.7578125 C11.99828125 3.2428125 11.99828125 3.2428125 10.98828125 4.7578125 C8.42578125 4.9453125 8.42578125 4.9453125 5.98828125 4.7578125 C5.65828125 4.7578125 5.32828125 4.7578125 4.98828125 4.7578125 C2.32161458 4.7578125 -0.34505208 4.7578125 -3.01171875 4.7578125 C-3.01171875 4.0978125 -3.01171875 3.4378125 -3.01171875 2.7578125 C-4.33171875 2.4278125 -5.65171875 2.0978125 -7.01171875 1.7578125 C-3.81766666 -0.37155556 -3.51984214 -0.47636961 0 0 Z " fill="#025526" transform="translate(389.01171875,344.2421875)"/>
<path d="M0 0 C1 2 2 4 3 6 C-0.96 7.98 -4.92 9.96 -9 12 C-9.33 10.35 -9.66 8.7 -10 7 C-9.34 7 -8.68 7 -8 7 C-6.31183067 5.35511706 -4.64646685 3.68662458 -3 2 C-2.01 1.34 -1.02 0.68 0 0 Z " fill="#0C5C30" transform="translate(443,641)"/>
<path d="M0 0 C0.33 0 0.66 0 1 0 C1.04898437 0.59167969 1.09796875 1.18335938 1.1484375 1.79296875 C1.62010371 8.17672733 1.62010371 8.17672733 4 14 C6.54775306 14.89386164 6.54775306 14.89386164 9 15 C9 16.98 9 18.96 9 21 C6.75 20.9375 6.75 20.9375 4 20 C-1.10212125 13.93261256 -0.41276581 7.62470179 0 0 Z " fill="#28794F" transform="translate(347,574)"/>
<path d="M0 0 C0.66 0 1.32 0 2 0 C2.33 0.66 2.66 1.32 3 2 C4.12148438 1.89171875 4.12148438 1.89171875 5.265625 1.78125 C6.74289062 1.64203125 6.74289062 1.64203125 8.25 1.5 C9.22453125 1.4071875 10.1990625 1.314375 11.203125 1.21875 C13.46302153 1.04199832 15.73320193 1 18 1 C12.75309431 4.49793713 7.85545396 5.27233279 1.625 5.625 C-0.24285156 5.73714844 -0.24285156 5.73714844 -2.1484375 5.8515625 C-3.55996094 5.92503906 -3.55996094 5.92503906 -5 6 C-4.67 4.68 -4.34 3.36 -4 2 C-3.01 2 -2.02 2 -1 2 C-0.67 1.34 -0.34 0.68 0 0 Z " fill="#5F413D" transform="translate(558,721)"/>
<path d="M0 0 C-0.92941406 0.58007812 -1.85882813 1.16015625 -2.81640625 1.7578125 C-12.06451641 7.57833637 -19.89411352 12.74865684 -26 22 C-26.66 21.67 -27.32 21.34 -28 21 C-23.05165037 13.70360995 -9.89192954 -3.29730985 0 0 Z " fill="#DDEDDC" transform="translate(422,436)"/>
<path d="M0 0 C0.66 0 1.32 0 2 0 C2 0.66 2 1.32 2 2 C3.11375 1.690625 3.11375 1.690625 4.25 1.375 C7.32330841 0.95591249 8.42786866 1.38050989 11 3 C11 3.66 11 4.32 11 5 C13.475 5.99 13.475 5.99 16 7 C16 7.33 16 7.66 16 8 C10.08306666 8.51902924 7.08900517 7.98323171 2.34765625 4.38671875 C1 3 1 3 0 0 Z " fill="#1B7345" transform="translate(238,455)"/>
<path d="M0 0 C1.32 0 2.64 0 4 0 C4 0.66 4 1.32 4 2 C2.09392715 3.06092734 0.17467254 4.09820101 -1.75 5.125 C-2.81734375 5.70507812 -3.8846875 6.28515625 -4.984375 6.8828125 C-8 8 -8 8 -10.390625 7.1796875 C-11.18726563 6.59574219 -11.18726563 6.59574219 -12 6 C-8.9315153 3.02449969 -7.53763669 2.03525487 -3.1875 1.75 C-1.6096875 1.87375 -1.6096875 1.87375 0 2 C0 1.34 0 0.68 0 0 Z " fill="#2D875A" transform="translate(472,695)"/>
<path d="M0 0 C0 0.66 0 1.32 0 2 C-1.65 2 -3.3 2 -5 2 C-5.185625 2.639375 -5.37125 3.27875 -5.5625 3.9375 C-7 6 -7 6 -10.5 6.6875 C-11.655 6.790625 -12.81 6.89375 -14 7 C-14.99 7.495 -14.99 7.495 -16 8 C-16 7.34 -16 6.68 -16 6 C-16.66 5.67 -17.32 5.34 -18 5 C-15.56427941 4.16112944 -13.12666783 3.32873471 -10.6875 2.5 C-9.65206055 2.14228516 -9.65206055 2.14228516 -8.59570312 1.77734375 C-5.61068511 0.76791737 -3.17341086 0 0 0 Z " fill="#30724E" transform="translate(300,295)"/>
<path d="M0 0 C0.33 0.66 0.66 1.32 1 2 C2.66500443 2.34153937 4.33178677 2.67449498 6 3 C6.66 3.66 7.32 4.32 8 5 C9.64991582 5.70710678 11.31562256 6.37943989 13 7 C13 7.66 13 8.32 13 9 C13.66 9.33 14.32 9.66 15 10 C14.67 10.66 14.34 11.32 14 12 C11.65806198 10.57512189 9.32706604 9.13630077 7 7.6875 C6.33226562 7.28337891 5.66453125 6.87925781 4.9765625 6.46289062 C3.26477431 5.3886562 1.62566562 4.20058724 0 3 C0 2.01 0 1.02 0 0 Z " fill="#3A7557" transform="translate(489,691)"/>
<path d="M0 0 C0.90105469 0.00902344 1.80210937 0.01804687 2.73046875 0.02734375 C3.41753906 0.03894531 4.10460937 0.05054688 4.8125 0.0625 C4.8125 0.7225 4.8125 1.3825 4.8125 2.0625 C-0.8125 5.0625 -0.8125 5.0625 -4.1875 5.0625 C-4.1875 4.4025 -4.1875 3.7425 -4.1875 3.0625 C-5.8375 3.0625 -7.4875 3.0625 -9.1875 3.0625 C-7.31499103 -0.68251794 -3.72136574 -0.04832943 0 0 Z " fill="#338057" transform="translate(251.1875,435.9375)"/>
<path d="M0 0 C0.66 0 1.32 0 2 0 C0.40109514 5.19644079 -1.74138003 10.06612142 -4 15 C-4.33 15 -4.66 15 -5 15 C-5.11001204 10.15947039 -4.51765608 6.55296823 -3 2 C-2.01 2 -1.02 2 0 2 C0 1.34 0 0.68 0 0 Z " fill="#338A5E" transform="translate(566,591)"/>
<path d="M0 0 C0 1.32 0 2.64 0 4 C-1.8125 5.8125 -1.8125 5.8125 -4 7 C-4.99 6.67 -5.98 6.34 -7 6 C-6.67 4.02 -6.34 2.04 -6 0 C-3 -1 -3 -1 0 0 Z " fill="#015627" transform="translate(250,319)"/>
<path d="M0 0 C2.25173582 3.37760373 2.8366795 5.98222224 3.6875 9.9375 C3.95949219 11.16339844 4.23148438 12.38929688 4.51171875 13.65234375 C4.94523901 16.62455864 5.03095906 18.23924385 4 21 C4 20.01 4 19.02 4 18 C3.34 18 2.68 18 2 18 C1.855625 16.88625 1.71125 15.7725 1.5625 14.625 C1.21627965 11.17857953 1.21627965 11.17857953 0 9 C-0.06950541 7.45976004 -0.08452357 5.91665012 -0.0625 4.375 C-0.05347656 3.55773437 -0.04445313 2.74046875 -0.03515625 1.8984375 C-0.02355469 1.27195312 -0.01195312 0.64546875 0 0 Z " fill="#418C66" transform="translate(576,444)"/>
<path d="M0 0 C-1.65 0.33 -3.3 0.66 -5 1 C-5 1.66 -5 2.32 -5 3 C-7.31 3.66 -9.62 4.32 -12 5 C-11 3 -10 1 -9 -1 C-5.26793158 -2.21040057 -3.31957615 -2.0901035 0 0 Z " fill="#3F8E65" transform="translate(309,356)"/>
<path d="M0 0 C1.5625 1.8125 1.5625 1.8125 3 4 C2.67 4.99 2.34 5.98 2 7 C0.35 6.67 -1.3 6.34 -3 6 C-3.33 8.64 -3.66 11.28 -4 14 C-4.33 14 -4.66 14 -5 14 C-5.46733615 9.42010577 -5.17261016 6.75145487 -2.5 3.0625 C-1.675 2.051875 -0.85 1.04125 0 0 Z " fill="#2A794D" transform="translate(241,439)"/>
<path d="M0 0 C3.66881155 0.70554068 6.70450534 2.27735506 10 4 C9.01 4.99 8.02 5.98 7 7 C6.34 6.67 5.68 6.34 5 6 C5 5.34 5 4.68 5 4 C3.68 4 2.36 4 1 4 C1 4.66 1 5.32 1 6 C0.34 5.67 -0.32 5.34 -1 5 C-0.67 3.35 -0.34 1.7 0 0 Z " fill="#2A8758" transform="translate(465,309)"/>
<path d="M0 0 C1.98 0 3.96 0 6 0 C6.66666667 2.66666667 7.33333333 5.33333333 8 8 C6.6589523 7.24266726 5.32730219 6.46867264 4 5.6875 C2.88625 5.04361328 2.88625 5.04361328 1.75 4.38671875 C1.1725 3.92910156 0.595 3.47148438 0 3 C0 2.01 0 1.02 0 0 Z " fill="#155E37" transform="translate(511,705)"/>
<path d="M0 0 C0.99 0 1.98 0 3 0 C1.9318153 5.11365014 0.76892524 10.07227969 -1 15 C-1.82638376 12.10765685 -2 10.11257569 -2 7 C-1.34 7 -0.68 7 0 7 C-0.66 5.68 -1.32 4.36 -2 3 C-1.34 2.01 -0.68 1.02 0 0 Z " fill="#2E875A" transform="translate(573,568)"/>
<path d="M0 0 C0.66 0.33 1.32 0.66 2 1 C0.73452987 2.62918007 -0.53757728 4.25320642 -1.8125 5.875 C-2.52019531 6.77992188 -3.22789062 7.68484375 -3.95703125 8.6171875 C-6 11 -6 11 -9 13 C-9 8.86218946 -7.28490393 7.79080004 -4.5 4.8125 C-3.6646875 3.91144531 -2.829375 3.01039063 -1.96875 2.08203125 C-0.99421875 1.05142578 -0.99421875 1.05142578 0 0 Z " fill="#D1E0CE" transform="translate(387,571)"/>
<path d="M0 0 C1.98 0 3.96 0 6 0 C6 0.66 6 1.32 6 2 C4.68 2 3.36 2 2 2 C2 2.66 2 3.32 2 4 C0.02 4 -1.96 4 -4 4 C-4.33 4.66 -4.66 5.32 -5 6 C-5.33 4.68 -5.66 3.36 -6 2 C-4.02 2 -2.04 2 0 2 C0 1.34 0 0.68 0 0 Z " fill="#3F3B27" transform="translate(502,681)"/>
<path d="M0 0 C0.53625 0.144375 1.0725 0.28875 1.625 0.4375 C4.39915827 1.09453748 7.18525388 1.55219948 10 2 C10 2.66 10 3.32 10 4 C6.37 4 2.74 4 -1 4 C-0.67 2.68 -0.34 1.36 0 0 Z " fill="#126634" transform="translate(529,673)"/>
<path d="M0 0 C2.375 0.25 2.375 0.25 5 1 C7.17831524 3.90442032 7.19715281 6.45124947 7 10 C3.66442368 7.0094833 1.84916079 4.06815373 0 0 Z " fill="#2C6948" transform="translate(175,625)"/>
<path d="M0 0 C1.15941038 3.47823115 0.70820884 5.45895578 0 9 C-1.98 9.33 -3.96 9.66 -6 10 C-4.02 6.7 -2.04 3.4 0 0 Z " fill="#206843" transform="translate(182,375)"/>
<path d="M0 0 C0.33 1.32 0.66 2.64 1 4 C0.01 4 -0.98 4 -2 4 C-2 4.66 -2 5.32 -2 6 C-3.65 6 -5.3 6 -7 6 C-7 6.66 -7 7.32 -7 8 C-8.32 7.67 -9.64 7.34 -11 7 C-7.37 4.69 -3.74 2.38 0 0 Z " fill="#2A6746" transform="translate(243,319)"/>
<path d="M0 0 C1.890625 0.6484375 1.890625 0.6484375 4 2 C5.046875 4.6015625 5.046875 4.6015625 5.75 7.625 C5.99234375 8.62789062 6.2346875 9.63078125 6.484375 10.6640625 C6.65453125 11.43492187 6.8246875 12.20578125 7 13 C5.68 12.34 4.36 11.68 3 11 C3.33 9.35 3.66 7.7 4 6 C3.34 6 2.68 6 2 6 C1.34 4.02 0.68 2.04 0 0 Z " fill="#5C4C44" transform="translate(592,663)"/>
<path d="M0 0 C5.445 1.485 5.445 1.485 11 3 C11 3.33 11 3.66 11 4 C4.64102564 5.34516765 4.64102564 5.34516765 1.5625 3.6875 C0 2 0 2 0 0 Z " fill="#388B61" transform="translate(319,657)"/>
<path d="M0 0 C0.33 0.66 0.66 1.32 1 2 C1.66 2 2.32 2 3 2 C2.34 3.32 1.68 4.64 1 6 C-0.32 6 -1.64 6 -3 6 C-3.33 5.01 -3.66 4.02 -4 3 C-2.68 2.01 -1.36 1.02 0 0 Z " fill="#0C884B" transform="translate(379,583)"/>
<path d="M0 0 C0.33 0 0.66 0 1 0 C1.63019694 9.17286652 1.63019694 9.17286652 -1 12.625 C-1.66 13.07875 -2.32 13.5325 -3 14 C-2.09276387 9.31261335 -1.0452733 4.65806256 0 0 Z " fill="#309B69" transform="translate(467,507)"/>
<path d="M0 0 C1 3 1 3 0 6 C-2.5625 7.1875 -2.5625 7.1875 -5 8 C-5.33 7.01 -5.66 6.02 -6 5 C-4.02 3.35 -2.04 1.7 0 0 Z " fill="#168D52" transform="translate(407,445)"/>
<path d="M0 0 C-2.91765 1.9451 -4.62537285 2.45276317 -8 3 C-8 2.67 -8 2.34 -8 2 C-9.65 1.67 -11.3 1.34 -13 1 C-13 0.67 -13 0.34 -13 0 C-8.37078475 -1.0161692 -4.65537393 -0.83796731 0 0 Z " fill="#3D8963" transform="translate(333,290)"/>
<path d="M0 0 C2.69082872 0.17635452 5.32851446 0.61835921 8 1 C5.6870518 3.3129482 4.52095125 3.49580975 1.375 4.125 C0.55773437 4.29257812 -0.25953125 4.46015625 -1.1015625 4.6328125 C-2.04128906 4.81457031 -2.04128906 4.81457031 -3 5 C-1.125 1.125 -1.125 1.125 0 0 Z " fill="#3F8F67" transform="translate(428,712)"/>
<path d="M0 0 C0.99 0.33 1.98 0.66 3 1 C3 3.97 3 6.94 3 10 C0.9375 8.375 0.9375 8.375 -1 6 C-0.75 2.75 -0.75 2.75 0 0 Z " fill="#327A54" transform="translate(305,583)"/>
<path d="M0 0 C2 3 2 3 1.86328125 5.2265625 C1.68152344 6.01804687 1.49976563 6.80953125 1.3125 7.625 C1.14363281 8.42164063 0.97476563 9.21828125 0.80078125 10.0390625 C0.40439453 11.00972656 0.40439453 11.00972656 0 12 C-0.99 12.33 -1.98 12.66 -3 13 C-2.01 8.71 -1.02 4.42 0 0 Z " fill="#367455" transform="translate(149,442)"/>
<path d="M0 0 C-1.3697164 3.99500618 -3.25722422 6.80009492 -6 10 C-6.87491004 7.5502519 -7.12900603 6.36551707 -6.25 3.875 C-4.5949573 1.39243595 -3.07774757 0 0 0 Z " fill="#3C8F66" transform="translate(240,411)"/>
<path d="M0 0 C1.32 0.33 2.64 0.66 4 1 C2.625 2.5 2.625 2.5 1 4 C0.34 4 -0.32 4 -1 4 C-1.66 5.32 -2.32 6.64 -3 8 C-3.33 6.68 -3.66 5.36 -4 4 C-3.34 4 -2.68 4 -2 4 C-1.34 2.68 -0.68 1.36 0 0 Z " fill="#469169" transform="translate(261,383)"/>
<path d="M0 0 C0.598125 0.185625 1.19625 0.37125 1.8125 0.5625 C4.16408762 1.22093687 4.16408762 1.22093687 7 0 C7.33 1.65 7.66 3.3 8 5 C4.40142046 5 2.90548882 4.04169485 0 2 C0 1.34 0 0.68 0 0 Z " fill="#286A48" transform="translate(429,363)"/>
<path d="M0 0 C0.99 0 1.98 0 3 0 C3.33 0.33 3.66 0.66 4 1 C4 0.67 4 0.34 4 0 C5.65 0 7.3 0 9 0 C7.8125 2 7.8125 2 6 4 C3.3125 4.25 3.3125 4.25 1 4 C0.67 2.68 0.34 1.36 0 0 Z " fill="#04612E" transform="translate(281,301)"/>
<path d="M0 0 C0.99 0 1.98 0 3 0 C2.67 3.3 2.34 6.6 2 10 C0 8 0 8 -0.1953125 6.0546875 C-0.13020833 4.03645833 -0.06510417 2.01822917 0 0 Z " fill="#418D64" transform="translate(581,529)"/>
<path d="M0 0 C0.33 1.32 0.66 2.64 1 4 C0.0409375 4.37125 0.0409375 4.37125 -0.9375 4.75 C-3.18741541 5.81562433 -3.18741541 5.81562433 -3.75 8.125 C-3.8325 8.74375 -3.915 9.3625 -4 10 C-4.99 10 -5.98 10 -7 10 C-7 9.34 -7 8.68 -7 8 C-6.34 8 -5.68 8 -5 8 C-4.731875 7.4225 -4.46375 6.845 -4.1875 6.25 C-2.98280141 3.9674132 -1.59201885 2.0262058 0 0 Z " fill="#2E694A" transform="translate(195,359)"/>
<path d="M0 0 C0.66 0 1.32 0 2 0 C2 1.32 2 2.64 2 4 C1.34 4 0.68 4 0 4 C0 4.66 0 5.32 0 6 C-1.65 6 -3.3 6 -5 6 C-4.67 4.68 -4.34 3.36 -4 2 C-3.01 2 -2.02 2 -1 2 C-0.67 1.34 -0.34 0.68 0 0 Z " fill="#4F4738" transform="translate(558,721)"/>
<path d="M0 0 C1.98 0 3.96 0 6 0 C6 0.66 6 1.32 6 2 C6.66 2.33 7.32 2.66 8 3 C8 3.99 8 4.98 8 6 C7.34 6 6.68 6 6 6 C6 5.34 6 4.68 6 4 C5.38125 3.71125 4.7625 3.4225 4.125 3.125 C2 2 2 2 0 0 Z " fill="#2F6E4E" transform="translate(446,375)"/>
<path d="M0 0 C1.32 0.33 2.64 0.66 4 1 C-0.455 3.97 -0.455 3.97 -5 7 C-4.67 5.35 -4.34 3.7 -4 2 C-2.68 2 -1.36 2 0 2 C0 1.34 0 0.68 0 0 Z " fill="#46906C" transform="translate(279,369)"/>
<path d="M0 0 C0.33 0.66 0.66 1.32 1 2 C1.99 2.33 2.98 2.66 4 3 C2.68 4.65 1.36 6.3 0 8 C-0.66 7.67 -1.32 7.34 -2 7 C-1.34 4.69 -0.68 2.38 0 0 Z " fill="#278254" transform="translate(550,617)"/>
<path d="M0 0 C2.31 0 4.62 0 7 0 C7 0.66 7 1.32 7 2 C4.35261084 3.4606285 3.10551666 4 0 4 C0 2.68 0 1.36 0 0 Z " fill="#3C9E70" transform="translate(457,521)"/>
<path d="M0 0 C0.66 0 1.32 0 2 0 C1.54738642 1.43931117 1.08767021 2.87638999 0.625 4.3125 C0.36976563 5.11300781 0.11453125 5.91351563 -0.1484375 6.73828125 C-1 9 -1 9 -3 12 C-3.33 11.01 -3.66 10.02 -4 9 C-3.34 8.01 -2.68 7.02 -2 6 C-1.29835358 4.01200182 -0.62627128 2.01301483 0 0 Z " fill="#3D8F67" transform="translate(226,431)"/>
<path d="M0 0 C2.74277578 3.19990508 4.6302836 6.00499382 6 10 C3 9 3 9 1.9375 7 C1.628125 6.34 1.31875 5.68 1 5 C0.34 4.67 -0.32 4.34 -1 4 C-0.67 2.68 -0.34 1.36 0 0 Z " fill="#2D8355" transform="translate(549,385)"/>
<path d="M0 0 C0 0.33 0 0.66 0 1 C-2.97 1.66 -5.94 2.32 -9 3 C-9.33 2.01 -9.66 1.02 -10 0 C-6.30581799 -1.231394 -3.7943739 -0.64432764 0 0 Z " fill="#2F8156" transform="translate(400,664)"/>
<path d="M0 0 C2.4375 0.75 2.4375 0.75 5 2 C5.8125 4.125 5.8125 4.125 6 6 C5.21625 5.67 4.4325 5.34 3.625 5 C1.15667503 3.88133489 1.15667503 3.88133489 -1 4 C-0.67 2.68 -0.34 1.36 0 0 Z " fill="#1E7D4B" transform="translate(314,655)"/>
<path d="M0 0 C2.02054804 1.64169528 4.02043058 3.30911778 6 5 C6 5.33 6 5.66 6 6 C4.02 6 2.04 6 0 6 C0 4.02 0 2.04 0 0 Z " fill="#44916A" transform="translate(259,619)"/>
<path d="M0 0 C0.66 1.32 1.32 2.64 2 4 C0.625 5.5 0.625 5.5 -1 7 C-1.66 7 -2.32 7 -3 7 C-2.625 4.0625 -2.625 4.0625 -2 1 C-1.34 0.67 -0.68 0.34 0 0 Z " fill="#165F3A" transform="translate(509,552)"/>
<path d="M0 0 C1.32 1.32 2.64 2.64 4 4 C3.34 4 2.68 4 2 4 C1.67 4.66 1.34 5.32 1 6 C0.01 5.67 -0.98 5.34 -2 5 C-2 4.01 -2 3.02 -2 2 C-1.34 2 -0.68 2 0 2 C0 1.34 0 0.68 0 0 Z " fill="#1E7A49" transform="translate(514,343)"/>
<path d="M0 0 C0.99 0.33 1.98 0.66 3 1 C2.67 1.99 2.34 2.98 2 4 C-0.64 4 -3.28 4 -6 4 C-4.03617993 2.49440461 -2.21736634 1.10868317 0 0 Z " fill="#276A49" transform="translate(265,307)"/>
<path d="M0 0 C1.32 0.33 2.64 0.66 4 1 C3.34 1 2.68 1 2 1 C2 1.99 2 2.98 2 4 C-0.31 4 -2.62 4 -5 4 C-5 3.34 -5 2.68 -5 2 C-3.35 2 -1.7 2 0 2 C0 1.34 0 0.68 0 0 Z " fill="#01622E" transform="translate(300,295)"/>
<path d="M0 0 C1.98 0 3.96 0 6 0 C5.67 0.66 5.34 1.32 5 2 C4.34 2 3.68 2 3 2 C3 2.66 3 3.32 3 4 C1.68 4 0.36 4 -1 4 C-0.67 2.68 -0.34 1.36 0 0 Z " fill="#418D64" transform="translate(477,691)"/>
<path d="M0 0 C3.96 1.98 3.96 1.98 8 4 C7.34 4.66 6.68 5.32 6 6 C4 5.9375 4 5.9375 2 5 C0.75 2.4375 0.75 2.4375 0 0 Z " fill="#3B8862" transform="translate(295,646)"/>
<path d="M0 0 C4 4.5 4 4.5 4 9 C3.01 8.67 2.02 8.34 1 8 C0.67 5.36 0.34 2.72 0 0 Z " fill="#388C62" transform="translate(562,408)"/>
<path d="M0 0 C1.98 0 3.96 0 6 0 C6.66 1.32 7.32 2.64 8 4 C5.69 3.67 3.38 3.34 1 3 C0.67 2.01 0.34 1.02 0 0 Z " fill="#296B49" transform="translate(378,345)"/>
<path d="M0 0 C2 1.3125 2 1.3125 4 3 C4 3.99 4 4.98 4 6 C-0.875 4.25 -0.875 4.25 -2 2 C-1.34 2 -0.68 2 0 2 C0 1.34 0 0.68 0 0 Z " fill="#1A613C" transform="translate(522,711)"/>
<path d="M0 0 C0.66 0 1.32 0 2 0 C1.34 1.98 0.68 3.96 0 6 C-0.99 6 -1.98 6 -3 6 C-2.67 4.68 -2.34 3.36 -2 2 C-1.34 2 -0.68 2 0 2 C0 1.34 0 0.68 0 0 Z " fill="#2F845A" transform="translate(556,611)"/>
<path d="M0 0 C1.32 1.32 2.64 2.64 4 4 C3.67 4.99 3.34 5.98 3 7 C2.01 6.67 1.02 6.34 0 6 C-0.75 4.0625 -0.75 4.0625 -1 2 C-0.67 1.34 -0.34 0.68 0 0 Z " fill="#2E8859" transform="translate(242,599)"/>
<path d="M0 0 C0.66 0 1.32 0 2 0 C1.34 1.65 0.68 3.3 0 5 C-1.32 5 -2.64 5 -4 5 C-3.67 4.01 -3.34 3.02 -3 2 C-2.01 2 -1.02 2 0 2 C0 1.34 0 0.68 0 0 Z " fill="#238051" transform="translate(566,591)"/>
<path d="M0 0 C0.99 0 1.98 0 3 0 C2.39816251 2.02045442 1.72693904 4.02111039 1 6 C0.01 6.495 0.01 6.495 -1 7 C-2 4 -2 4 -1.0625 1.8125 C-0.5365625 0.9153125 -0.5365625 0.9153125 0 0 Z " fill="#6B4643" transform="translate(388,564)"/>
<path d="M0 0 C6.625 -0.25 6.625 -0.25 10 2 C7.36 2.33 4.72 2.66 2 3 C1.34 2.01 0.68 1.02 0 0 Z " fill="#3B8C66" transform="translate(404,289)"/>
</svg>
